<mxfile host="app.diagrams.net" modified="2022-11-16T14:35:05.960Z" agent="5.0 (Windows NT 10.0; Win64; x64) AppleWebKit/537.36 (KHTML, like Gecko) Chrome/107.0.0.0 Safari/537.36" etag="X0riexU6EFB5WOMYbo5k" version="20.3.0" type="github" pages="2">
  <diagram id="mDoOFuVopG-GRa_F1YOK" name="Page-1">
    <mxGraphModel dx="1422" dy="808" grid="1" gridSize="10" guides="1" tooltips="1" connect="1" arrows="1" fold="1" page="1" pageScale="1" pageWidth="1100" pageHeight="1700" math="0" shadow="0">
      <root>
        <mxCell id="0" />
        <mxCell id="1" parent="0" />
        <mxCell id="A0MXVN8yfLAMDj7Eha8F-35" value="" style="rounded=1;whiteSpace=wrap;html=1;absoluteArcSize=1;arcSize=14;strokeWidth=2;gradientColor=none;fillColor=none;" parent="1" vertex="1">
          <mxGeometry x="390" y="220" width="540" height="730" as="geometry" />
        </mxCell>
        <mxCell id="A0MXVN8yfLAMDj7Eha8F-2" value="Tenant 1" style="swimlane;" parent="1" vertex="1">
          <mxGeometry x="390" y="250" width="200" height="150" as="geometry" />
        </mxCell>
        <mxCell id="A0MXVN8yfLAMDj7Eha8F-12" value="Tenant Name : One" style="text;html=1;align=center;verticalAlign=middle;resizable=0;points=[];autosize=1;strokeColor=none;fillColor=none;" parent="A0MXVN8yfLAMDj7Eha8F-2" vertex="1">
          <mxGeometry x="10" y="50" width="130" height="30" as="geometry" />
        </mxCell>
        <mxCell id="A0MXVN8yfLAMDj7Eha8F-13" value="Contains Survey Questions : Yes" style="text;html=1;align=center;verticalAlign=middle;resizable=0;points=[];autosize=1;strokeColor=none;fillColor=none;" parent="A0MXVN8yfLAMDj7Eha8F-2" vertex="1">
          <mxGeometry y="90" width="200" height="30" as="geometry" />
        </mxCell>
        <mxCell id="A0MXVN8yfLAMDj7Eha8F-3" value="Tenant 2" style="swimlane;" parent="1" vertex="1">
          <mxGeometry x="390" y="430" width="200" height="150" as="geometry" />
        </mxCell>
        <mxCell id="A0MXVN8yfLAMDj7Eha8F-22" value="Tenant Name : Two" style="text;html=1;align=center;verticalAlign=middle;resizable=0;points=[];autosize=1;strokeColor=none;fillColor=none;" parent="A0MXVN8yfLAMDj7Eha8F-3" vertex="1">
          <mxGeometry x="10" y="50" width="130" height="30" as="geometry" />
        </mxCell>
        <mxCell id="A0MXVN8yfLAMDj7Eha8F-23" value="Contains Survey Questions : No" style="text;html=1;align=center;verticalAlign=middle;resizable=0;points=[];autosize=1;strokeColor=none;fillColor=none;" parent="A0MXVN8yfLAMDj7Eha8F-3" vertex="1">
          <mxGeometry x="5" y="90" width="190" height="30" as="geometry" />
        </mxCell>
        <mxCell id="A0MXVN8yfLAMDj7Eha8F-4" value="Tenant 3" style="swimlane;" parent="1" vertex="1">
          <mxGeometry x="390" y="610" width="200" height="150" as="geometry" />
        </mxCell>
        <mxCell id="A0MXVN8yfLAMDj7Eha8F-24" value="Tenant Name : Three" style="text;html=1;align=center;verticalAlign=middle;resizable=0;points=[];autosize=1;strokeColor=none;fillColor=none;" parent="A0MXVN8yfLAMDj7Eha8F-4" vertex="1">
          <mxGeometry x="5" y="50" width="140" height="30" as="geometry" />
        </mxCell>
        <mxCell id="A0MXVN8yfLAMDj7Eha8F-25" value="Contains Survey Questions : No" style="text;html=1;align=center;verticalAlign=middle;resizable=0;points=[];autosize=1;strokeColor=none;fillColor=none;" parent="A0MXVN8yfLAMDj7Eha8F-4" vertex="1">
          <mxGeometry x="5" y="90" width="190" height="30" as="geometry" />
        </mxCell>
        <mxCell id="A0MXVN8yfLAMDj7Eha8F-5" value="Tenant 4" style="swimlane;" parent="1" vertex="1">
          <mxGeometry x="390" y="790" width="200" height="150" as="geometry" />
        </mxCell>
        <mxCell id="A0MXVN8yfLAMDj7Eha8F-26" value="Tenant Name : Four" style="text;html=1;align=center;verticalAlign=middle;resizable=0;points=[];autosize=1;strokeColor=none;fillColor=none;" parent="A0MXVN8yfLAMDj7Eha8F-5" vertex="1">
          <mxGeometry x="10" y="45" width="130" height="30" as="geometry" />
        </mxCell>
        <mxCell id="A0MXVN8yfLAMDj7Eha8F-27" value="Contains Survey Questions : No" style="text;html=1;align=center;verticalAlign=middle;resizable=0;points=[];autosize=1;strokeColor=none;fillColor=none;" parent="A0MXVN8yfLAMDj7Eha8F-5" vertex="1">
          <mxGeometry x="5" y="85" width="190" height="30" as="geometry" />
        </mxCell>
        <mxCell id="A0MXVN8yfLAMDj7Eha8F-38" value="" style="edgeStyle=orthogonalEdgeStyle;rounded=0;orthogonalLoop=1;jettySize=auto;html=1;" parent="1" source="A0MXVN8yfLAMDj7Eha8F-6" target="A0MXVN8yfLAMDj7Eha8F-35" edge="1">
          <mxGeometry relative="1" as="geometry">
            <Array as="points">
              <mxPoint x="560" y="170" />
              <mxPoint x="560" y="170" />
            </Array>
          </mxGeometry>
        </mxCell>
        <mxCell id="A0MXVN8yfLAMDj7Eha8F-6" value="Start" style="strokeWidth=2;html=1;shape=mxgraph.flowchart.start_2;whiteSpace=wrap;" parent="1" vertex="1">
          <mxGeometry x="510" y="20" width="100" height="100" as="geometry" />
        </mxCell>
        <mxCell id="A0MXVN8yfLAMDj7Eha8F-11" value="" style="endArrow=classic;html=1;rounded=0;entryX=0;entryY=0.5;entryDx=0;entryDy=0;" parent="1" edge="1">
          <mxGeometry width="50" height="50" relative="1" as="geometry">
            <mxPoint x="590" y="334.5" as="sourcePoint" />
            <mxPoint x="641.5" y="334.5" as="targetPoint" />
          </mxGeometry>
        </mxCell>
        <mxCell id="A0MXVN8yfLAMDj7Eha8F-28" value="" style="verticalLabelPosition=bottom;verticalAlign=top;html=1;strokeWidth=2;shape=mxgraph.arrows2.arrow;dy=0.6;dx=40;notch=0;" parent="1" vertex="1">
          <mxGeometry x="640" y="300" width="100" height="70" as="geometry" />
        </mxCell>
        <mxCell id="A0MXVN8yfLAMDj7Eha8F-29" value="" style="endArrow=classic;html=1;rounded=0;entryX=0;entryY=0.5;entryDx=0;entryDy=0;" parent="1" edge="1">
          <mxGeometry width="50" height="50" relative="1" as="geometry">
            <mxPoint x="590" y="514.5" as="sourcePoint" />
            <mxPoint x="641.5" y="514.5" as="targetPoint" />
          </mxGeometry>
        </mxCell>
        <mxCell id="A0MXVN8yfLAMDj7Eha8F-30" value="" style="verticalLabelPosition=bottom;verticalAlign=top;html=1;strokeWidth=2;shape=mxgraph.arrows2.arrow;dy=0.6;dx=40;notch=0;" parent="1" vertex="1">
          <mxGeometry x="640" y="480" width="100" height="70" as="geometry" />
        </mxCell>
        <mxCell id="A0MXVN8yfLAMDj7Eha8F-31" value="" style="endArrow=classic;html=1;rounded=0;entryX=0;entryY=0.5;entryDx=0;entryDy=0;" parent="1" edge="1">
          <mxGeometry width="50" height="50" relative="1" as="geometry">
            <mxPoint x="580" y="694.5" as="sourcePoint" />
            <mxPoint x="631.5" y="694.5" as="targetPoint" />
          </mxGeometry>
        </mxCell>
        <mxCell id="A0MXVN8yfLAMDj7Eha8F-32" value="" style="verticalLabelPosition=bottom;verticalAlign=top;html=1;strokeWidth=2;shape=mxgraph.arrows2.arrow;dy=0.6;dx=40;notch=0;" parent="1" vertex="1">
          <mxGeometry x="630" y="660" width="110" height="70" as="geometry" />
        </mxCell>
        <mxCell id="A0MXVN8yfLAMDj7Eha8F-33" value="" style="endArrow=classic;html=1;rounded=0;entryX=0;entryY=0.5;entryDx=0;entryDy=0;" parent="1" edge="1">
          <mxGeometry width="50" height="50" relative="1" as="geometry">
            <mxPoint x="590" y="864.5" as="sourcePoint" />
            <mxPoint x="641.5" y="864.5" as="targetPoint" />
          </mxGeometry>
        </mxCell>
        <mxCell id="A0MXVN8yfLAMDj7Eha8F-34" value="" style="verticalLabelPosition=bottom;verticalAlign=top;html=1;strokeWidth=2;shape=mxgraph.arrows2.arrow;dy=0.6;dx=40;notch=0;" parent="1" vertex="1">
          <mxGeometry x="640" y="830" width="100" height="70" as="geometry" />
        </mxCell>
        <mxCell id="A0MXVN8yfLAMDj7Eha8F-39" value="" style="shape=internalStorage;whiteSpace=wrap;html=1;backgroundOutline=1;fillColor=none;gradientColor=none;" parent="1" vertex="1">
          <mxGeometry x="800" y="290" width="80" height="80" as="geometry" />
        </mxCell>
        <mxCell id="A0MXVN8yfLAMDj7Eha8F-40" value="" style="endArrow=classic;html=1;rounded=0;entryX=0;entryY=0.5;entryDx=0;entryDy=0;" parent="1" edge="1">
          <mxGeometry width="50" height="50" relative="1" as="geometry">
            <mxPoint x="280" y="164.5" as="sourcePoint" />
            <mxPoint x="331.5" y="164.5" as="targetPoint" />
          </mxGeometry>
        </mxCell>
        <mxCell id="A0MXVN8yfLAMDj7Eha8F-42" value="" style="shape=internalStorage;whiteSpace=wrap;html=1;backgroundOutline=1;fillColor=none;gradientColor=none;" parent="1" vertex="1">
          <mxGeometry x="800" y="470" width="80" height="80" as="geometry" />
        </mxCell>
        <mxCell id="A0MXVN8yfLAMDj7Eha8F-43" value="" style="shape=internalStorage;whiteSpace=wrap;html=1;backgroundOutline=1;fillColor=none;gradientColor=none;" parent="1" vertex="1">
          <mxGeometry x="800" y="650" width="80" height="80" as="geometry" />
        </mxCell>
        <mxCell id="A0MXVN8yfLAMDj7Eha8F-44" value="" style="shape=internalStorage;whiteSpace=wrap;html=1;backgroundOutline=1;fillColor=none;gradientColor=none;" parent="1" vertex="1">
          <mxGeometry x="800" y="825" width="80" height="80" as="geometry" />
        </mxCell>
      </root>
    </mxGraphModel>
  </diagram>
  <diagram id="VG888tK2KvUiU8NAteVS" name="Page-2">
    <mxGraphModel dx="1422" dy="808" grid="1" gridSize="10" guides="1" tooltips="1" connect="1" arrows="1" fold="1" page="1" pageScale="1" pageWidth="1100" pageHeight="1700" math="0" shadow="0">
      <root>
        <mxCell id="0" />
        <mxCell id="1" parent="0" />
        <mxCell id="MoWbuHwWE8NBCATTvO01-5" value="ccft" style="swimlane;fontStyle=0;childLayout=stackLayout;horizontal=1;startSize=26;fillColor=none;horizontalStack=0;resizeParent=1;resizeParentMax=0;resizeLast=0;collapsible=1;marginBottom=0;" parent="1" vertex="1">
          <mxGeometry x="20" y="10" width="240" height="266" as="geometry" />
        </mxCell>
        <mxCell id="MoWbuHwWE8NBCATTvO01-9" value="&lt;div style=&quot;color: rgb(171, 178, 191); background-color: rgb(40, 44, 52); font-family: Consolas, &amp;quot;Courier New&amp;quot;, monospace; line-height: 16px;&quot;&gt;&lt;div&gt;[Mccase] [nvarchar](&lt;span style=&quot;color: #d19a66;&quot;&gt;50&lt;/span&gt;) &lt;span style=&quot;color: #c678dd;&quot;&gt;NULL&lt;/span&gt;,&lt;/div&gt;&lt;div&gt;&amp;nbsp; &amp;nbsp; [Event] [int] &lt;span style=&quot;color: #c678dd;&quot;&gt;NULL&lt;/span&gt;,&lt;/div&gt;&lt;div&gt;&amp;nbsp; &amp;nbsp; [Category] [nvarchar](&lt;span style=&quot;color: #d19a66;&quot;&gt;50&lt;/span&gt;) &lt;span style=&quot;color: #c678dd;&quot;&gt;NULL&lt;/span&gt;,&lt;/div&gt;&lt;div&gt;&amp;nbsp; &amp;nbsp; [Subject] [int] &lt;span style=&quot;color: #c678dd;&quot;&gt;NULL&lt;/span&gt;,&lt;/div&gt;&lt;div&gt;&amp;nbsp; &amp;nbsp; [Class] [nvarchar](&lt;span style=&quot;color: #d19a66;&quot;&gt;50&lt;/span&gt;) &lt;span style=&quot;color: #c678dd;&quot;&gt;NULL&lt;/span&gt;,&lt;/div&gt;&lt;div&gt;&amp;nbsp; &amp;nbsp; [Subclass] [nvarchar](&lt;span style=&quot;color: #d19a66;&quot;&gt;50&lt;/span&gt;) &lt;span style=&quot;color: #c678dd;&quot;&gt;NULL&lt;/span&gt;,&lt;/div&gt;&lt;div&gt;&amp;nbsp; &amp;nbsp; [state] [nvarchar](&lt;span style=&quot;color: #d19a66;&quot;&gt;50&lt;/span&gt;) &lt;span style=&quot;color: #c678dd;&quot;&gt;NULL&lt;/span&gt;,&lt;/div&gt;&lt;div&gt;&amp;nbsp; &amp;nbsp; [party] [nvarchar](&lt;span style=&quot;color: #d19a66;&quot;&gt;50&lt;/span&gt;) &lt;span style=&quot;color: #c678dd;&quot;&gt;NULL&lt;/span&gt;,&lt;/div&gt;&lt;div&gt;&amp;nbsp; &amp;nbsp; [causal_event1] [int] &lt;span style=&quot;color: #c678dd;&quot;&gt;NULL&lt;/span&gt;,&lt;/div&gt;&lt;div&gt;&amp;nbsp; &amp;nbsp; [causal_event2] [int] &lt;span style=&quot;color: #c678dd;&quot;&gt;NULL&lt;/span&gt;,&lt;/div&gt;&lt;div&gt;&amp;nbsp; &amp;nbsp; [supp_ind] [nvarchar](&lt;span style=&quot;color: #d19a66;&quot;&gt;50&lt;/span&gt;) &lt;span style=&quot;color: #c678dd;&quot;&gt;NULL&lt;/span&gt;,&lt;/div&gt;&lt;div&gt;&amp;nbsp; &amp;nbsp; [supp_id] [nvarchar](&lt;span style=&quot;color: #d19a66;&quot;&gt;50&lt;/span&gt;) &lt;span style=&quot;color: #c678dd;&quot;&gt;NULL&lt;/span&gt;,&lt;/div&gt;&lt;div&gt;&amp;nbsp; &amp;nbsp; [hfnum] [int] &lt;span style=&quot;color: #c678dd;&quot;&gt;NULL&lt;/span&gt;,&lt;/div&gt;&lt;div&gt;&amp;nbsp; &amp;nbsp; [sp] [nvarchar](&lt;span style=&quot;color: #d19a66;&quot;&gt;1&lt;/span&gt;) &lt;span style=&quot;color: #c678dd;&quot;&gt;NULL&lt;/span&gt;&lt;/div&gt;&lt;/div&gt;" style="text;html=1;align=center;verticalAlign=middle;resizable=0;points=[];autosize=1;strokeColor=none;fillColor=none;" parent="MoWbuHwWE8NBCATTvO01-5" vertex="1">
          <mxGeometry y="26" width="240" height="240" as="geometry" />
        </mxCell>
        <mxCell id="MoWbuHwWE8NBCATTvO01-10" value="ccgt" style="swimlane;fontStyle=0;childLayout=stackLayout;horizontal=1;startSize=26;fillColor=none;horizontalStack=0;resizeParent=1;resizeParentMax=0;resizeLast=0;collapsible=1;marginBottom=0;" parent="1" vertex="1">
          <mxGeometry x="510" y="20" width="290" height="156" as="geometry" />
        </mxCell>
        <mxCell id="jKlbCMXkHHNep7ZZjATp-2" value="&lt;div style=&quot;color: rgb(171, 178, 191); background-color: rgb(40, 44, 52); font-family: Consolas, &amp;quot;Courier New&amp;quot;, monospace; line-height: 16px;&quot;&gt;&lt;div&gt;&amp;nbsp; &amp;nbsp; [Mccase] [nvarchar](&lt;span style=&quot;color: #d19a66;&quot;&gt;50&lt;/span&gt;) &lt;span style=&quot;color: #c678dd;&quot;&gt;NULL&lt;/span&gt;,&lt;/div&gt;&lt;div&gt;&amp;nbsp; &amp;nbsp; [Subject] [nvarchar](&lt;span style=&quot;color: #d19a66;&quot;&gt;50&lt;/span&gt;) &lt;span style=&quot;color: #c678dd;&quot;&gt;NULL&lt;/span&gt;,&lt;/div&gt;&lt;div&gt;&amp;nbsp; &amp;nbsp; [Speed] [int] &lt;span style=&quot;color: #c678dd;&quot;&gt;NULL&lt;/span&gt;,&lt;/div&gt;&lt;div&gt;&amp;nbsp; &amp;nbsp; [impact_location] [nvarchar](&lt;span style=&quot;color: #d19a66;&quot;&gt;50&lt;/span&gt;) &lt;span style=&quot;color: #c678dd;&quot;&gt;NULL&lt;/span&gt;,&lt;/div&gt;&lt;div&gt;&amp;nbsp; &amp;nbsp; [dbl_bott] [nvarchar](&lt;span style=&quot;color: #d19a66;&quot;&gt;50&lt;/span&gt;) &lt;span style=&quot;color: #c678dd;&quot;&gt;NULL&lt;/span&gt;,&lt;/div&gt;&lt;div&gt;&amp;nbsp; &amp;nbsp; [dbl_hull] [nvarchar](&lt;span style=&quot;color: #d19a66;&quot;&gt;50&lt;/span&gt;) &lt;span style=&quot;color: #c678dd;&quot;&gt;NULL&lt;/span&gt;,&lt;/div&gt;&lt;div&gt;&amp;nbsp; &amp;nbsp; [Sp] [nvarchar](&lt;span style=&quot;color: #d19a66;&quot;&gt;1&lt;/span&gt;) &lt;span style=&quot;color: #c678dd;&quot;&gt;NULL&lt;/span&gt;&lt;/div&gt;&lt;/div&gt;" style="text;html=1;align=center;verticalAlign=middle;resizable=0;points=[];autosize=1;strokeColor=none;fillColor=none;" parent="MoWbuHwWE8NBCATTvO01-10" vertex="1">
          <mxGeometry y="26" width="290" height="130" as="geometry" />
        </mxCell>
        <mxCell id="jKlbCMXkHHNep7ZZjATp-3" value="name" style="endArrow=block;endFill=1;html=1;edgeStyle=orthogonalEdgeStyle;align=left;verticalAlign=top;rounded=0;exitX=1;exitY=0.096;exitDx=0;exitDy=0;exitPerimeter=0;entryX=-0.01;entryY=0.154;entryDx=0;entryDy=0;entryPerimeter=0;" parent="1" source="MoWbuHwWE8NBCATTvO01-9" target="jKlbCMXkHHNep7ZZjATp-2" edge="1">
          <mxGeometry x="-1" relative="1" as="geometry">
            <mxPoint x="550" y="260" as="sourcePoint" />
            <mxPoint x="490" y="60" as="targetPoint" />
          </mxGeometry>
        </mxCell>
        <mxCell id="jKlbCMXkHHNep7ZZjATp-4" value="1" style="edgeLabel;resizable=0;html=1;align=left;verticalAlign=bottom;" parent="jKlbCMXkHHNep7ZZjATp-3" connectable="0" vertex="1">
          <mxGeometry x="-1" relative="1" as="geometry" />
        </mxCell>
        <mxCell id="FoI0jO2lBzjhsMNPYlKB-1" value="cevt" style="swimlane;fontStyle=0;childLayout=stackLayout;horizontal=1;startSize=26;fillColor=none;horizontalStack=0;resizeParent=1;resizeParentMax=0;resizeLast=0;collapsible=1;marginBottom=0;" vertex="1" parent="1">
          <mxGeometry x="570" y="230" width="280" height="236" as="geometry" />
        </mxCell>
        <mxCell id="FoI0jO2lBzjhsMNPYlKB-2" value="&lt;div style=&quot;color: rgb(171, 178, 191); background-color: rgb(40, 44, 52); font-family: Consolas, &amp;quot;Courier New&amp;quot;, monospace; line-height: 16px;&quot;&gt;&lt;div style=&quot;line-height: 16px;&quot;&gt;&lt;div&gt;&amp;nbsp; &amp;nbsp; [Mccase] [nvarchar](&lt;span style=&quot;color: #d19a66;&quot;&gt;50&lt;/span&gt;) &lt;span style=&quot;color: #c678dd;&quot;&gt;NULL&lt;/span&gt;,&lt;/div&gt;&lt;div&gt;&amp;nbsp; &amp;nbsp; [Event] [int] &lt;span style=&quot;color: #c678dd;&quot;&gt;NULL&lt;/span&gt;,&lt;/div&gt;&lt;div&gt;&amp;nbsp; &amp;nbsp; [subject1] [int] &lt;span style=&quot;color: #c678dd;&quot;&gt;NULL&lt;/span&gt;,&lt;/div&gt;&lt;div&gt;&amp;nbsp; &amp;nbsp; [subject2] [int] &lt;span style=&quot;color: #c678dd;&quot;&gt;NULL&lt;/span&gt;,&lt;/div&gt;&lt;div&gt;&amp;nbsp; &amp;nbsp; [Type] [nvarchar](&lt;span style=&quot;color: #d19a66;&quot;&gt;50&lt;/span&gt;) &lt;span style=&quot;color: #c678dd;&quot;&gt;NULL&lt;/span&gt;,&lt;/div&gt;&lt;div&gt;&amp;nbsp; &amp;nbsp; [Class] [nvarchar](&lt;span style=&quot;color: #d19a66;&quot;&gt;50&lt;/span&gt;) &lt;span style=&quot;color: #c678dd;&quot;&gt;NULL&lt;/span&gt;,&lt;/div&gt;&lt;div&gt;&amp;nbsp; &amp;nbsp; [State] [nvarchar](&lt;span style=&quot;color: #d19a66;&quot;&gt;50&lt;/span&gt;) &lt;span style=&quot;color: #c678dd;&quot;&gt;NULL&lt;/span&gt;,&lt;/div&gt;&lt;div&gt;&amp;nbsp; &amp;nbsp; [causal_event1] [int] &lt;span style=&quot;color: #c678dd;&quot;&gt;NULL&lt;/span&gt;,&lt;/div&gt;&lt;div&gt;&amp;nbsp; &amp;nbsp; [causal_event2] [int] &lt;span style=&quot;color: #c678dd;&quot;&gt;NULL&lt;/span&gt;,&lt;/div&gt;&lt;div&gt;&amp;nbsp; &amp;nbsp; [subj1_sig_ind] [nvarchar](&lt;span style=&quot;color: #d19a66;&quot;&gt;50&lt;/span&gt;) &lt;span style=&quot;color: #c678dd;&quot;&gt;NULL&lt;/span&gt;,&lt;/div&gt;&lt;div&gt;&amp;nbsp; &amp;nbsp; [subj2_sig_ind] [nvarchar](&lt;span style=&quot;color: #d19a66;&quot;&gt;50&lt;/span&gt;) &lt;span style=&quot;color: #c678dd;&quot;&gt;NULL&lt;/span&gt;,&lt;/div&gt;&lt;div&gt;&amp;nbsp; &amp;nbsp; [Sp] [nvarchar](&lt;span style=&quot;color: #d19a66;&quot;&gt;50&lt;/span&gt;) &lt;span style=&quot;color: #c678dd;&quot;&gt;NULL&lt;/span&gt;&lt;/div&gt;&lt;/div&gt;&lt;/div&gt;" style="text;html=1;align=center;verticalAlign=middle;resizable=0;points=[];autosize=1;strokeColor=none;fillColor=none;" vertex="1" parent="FoI0jO2lBzjhsMNPYlKB-1">
          <mxGeometry y="26" width="280" height="210" as="geometry" />
        </mxCell>
        <mxCell id="FoI0jO2lBzjhsMNPYlKB-3" value="name" style="endArrow=block;endFill=1;html=1;edgeStyle=orthogonalEdgeStyle;align=left;verticalAlign=top;rounded=0;" edge="1" parent="1">
          <mxGeometry x="-1" relative="1" as="geometry">
            <mxPoint x="810" y="60" as="sourcePoint" />
            <mxPoint x="860" y="270" as="targetPoint" />
            <Array as="points">
              <mxPoint x="990" y="60" />
              <mxPoint x="990" y="270" />
            </Array>
          </mxGeometry>
        </mxCell>
        <mxCell id="FoI0jO2lBzjhsMNPYlKB-4" value="1" style="edgeLabel;resizable=0;html=1;align=left;verticalAlign=bottom;" connectable="0" vertex="1" parent="FoI0jO2lBzjhsMNPYlKB-3">
          <mxGeometry x="-1" relative="1" as="geometry" />
        </mxCell>
      </root>
    </mxGraphModel>
  </diagram>
</mxfile>
